# xmcd
#
# Track frame offsets:
#	150
#	14640
#	31247
#	52327
#	67357
#	81200
#	96792
#	112175
#	127045
#	144350
#	157940
#	171987
#	189709
#	205820
#	222285
#
# Disc length: 3155 seconds
#
# Revision: 0
# Processed by: cddbd v1.5.2PL0 Copyright (c) Steve Scherf et al.
# Submitted via: audiograbber 1.83.01
#
DISCID=e70c510f
DTITLE=Sound Choice - Country Hits - Vol.75 SC8321
DYEAR=1900
DGENRE=Karaoke
TTITLE0=Paulette Carlson - Not With My Heart You Don't
TTITLE1=Linda Davis - How Can I Make You Love Me
TTITLE2=Reba McEntire - Baby's Gone Blue
TTITLE3=Lari White - Wishes
TTITLE4=Diamond Rio - Wild Blue Yonder
TTITLE5=Doug Supernaw - Honky Tonkin' Fool
TTITLE6=Emmylou Harris - High Powered Love
TTITLE7=Dean Dillon - Hot Country And Single
TTITLE8=Don Williams - It's Who You Love
TTITLE9=Dawn Sears - Nothin' But Good
TTITLE10=Eddy Arnold - Out Of The Blue
TTITLE11=Davis Daniel - Tyler
TTITLE12=Dolly Parton - Striaght Talk
TTITLE13=George Strait - Without Me Around
TTITLE14=Dusty Martin - The Wrong Mr. Right Again
EXTD=
EXTT0=
EXTT1=
EXTT2=
EXTT3=
EXTT4=
EXTT5=
EXTT6=
EXTT7=
EXTT8=
EXTT9=
EXTT10=
EXTT11=
EXTT12=
EXTT13=
EXTT14=
PLAYORDER=
